<svg xmlns="http://www.w3.org/2000/svg" xmlns:xlink="http://www.w3.org/1999/xlink" xmlns:inkscape="http://www.inkscape.org/namespaces/inkscape" version="1.1" width="16148.49" height="16322.79" viewBox="0 0 16148.49 16322.79">
<path transform="matrix(1,0,0,-1,198.304,14777.245)" d="M15940.43 15940.43V15940.43ZM15940.43 15940.43" fill="#121212"/>
<path transform="matrix(1,0,0,-1,198.304,14777.245)" stroke-width=".3985" stroke-linecap="butt" stroke-miterlimit="10" stroke-linejoin="miter" fill="none" stroke="#ffffff" d="M81.05534 14.17339H-81.05534C-83.25629 14.17339-85.04045 12.38922-85.04045 10.18828V-10.18828C-85.04045-12.38922-83.25629-14.17339-81.05534-14.17339H81.05534C83.25629-14.17339 85.04045-12.38922 85.04045-10.18828V10.18828C85.04045 12.38922 83.25629 14.17339 81.05534 14.17339ZM-85.04045-14.17339"/>
<text fill="#ffffff" xml:space="preserve" transform="matrix(1 0 -0 1 0 16322.79)" font-size="9.9626" font-family="Computer Modern"><tspan y="-1542.086" x="131.249 136.7882 140.66365 145.64495 149.55028 153.42574 160.61875 168.0907 172.01596 176.43936 183.67221 188.6535 193.0769 197.5003 201.9237 205.84897 209.77423 214.19763 221.44045 228.08551 233.0668 238.606 242.51134 249.56487 254.54616 260.08537">Start:UseraccessesYourBank</tspan></text>
<path transform="matrix(1,0,0,-1,198.304,14777.245)" stroke-width=".3985" stroke-linecap="butt" stroke-miterlimit="10" stroke-linejoin="miter" fill="none" stroke="#ffffff" d="M97.48276-65.59625H-97.48276C-99.6837-65.59625-101.46786-67.38042-101.46786-69.58136V-89.95795C-101.46786-92.15889-99.6837-93.94305-97.48276-93.94305H97.48276C99.6837-93.94305 101.46786-92.15889 101.46786-89.95795V-69.58136C101.46786-67.38042 99.6837-65.59625 97.48276-65.59625ZM-101.46786-93.94305"/>
<text fill="#ffffff" xml:space="preserve" transform="matrix(1 0 -0 1 .0009994507 16322.79)" font-size="9.9626" font-family="Computer Modern"><tspan y="-1463.286" x="100.157 107.62895 111.554218 115.97761 123.20049 130.67244 136.21164 140.0871 145.6263 150.0497 155.3199 159.19536 161.96497 166.38837 171.36966 175.24512 178.01473 182.99602 188.53522 194.76184 199.74314 204.72443 207.49404 216.35079 227.41924 235.17014 242.36313 252.46521 257.72547 260.49507 268.80387 275.99687 283.18986 285.95945 288.72904 291.49864">UserAuthenticationLogin+OTPviaTwilio</tspan></text>
<path transform="matrix(1,0,0,-1,198.304,14777.245)" stroke-width=".3985" stroke-linecap="butt" stroke-miterlimit="10" stroke-linejoin="miter" fill="none" stroke="#ffffff" d="M184.15895-145.36592H-184.15895C-186.3599-145.36592-188.14406-147.15009-188.14406-149.35103V-169.7276C-188.14406-171.92855-186.3599-173.7127-184.15895-173.7127H184.15895C186.3599-173.7127 188.14406-171.92855 188.14406-169.7276V-149.35103C188.14406-147.15009 186.3599-145.36592 184.15895-145.36592ZM-188.14406-173.7127"/>
<text fill="#ffffff" xml:space="preserve" transform="matrix(1 0 -0 1 .001001358 16322.79)" font-size="9.9626" font-family="Computer Modern"><tspan y="-1383.517" x="13.482 20.95395 24.879216 29.30261 36.525499 41.506799 47.32496 51.748353 57.28756 64.54034 70.20905 75.19035 77.95995 81.865299 87.4045 92.66476 98.203968 105.9449 113.416858 120.34086 127.812808 132.7941 137.2175 142.47776 146.35321 153.5462 159.0854 164.0667 167.94216 172.92345 179.56851 184.5498 187.31941 191.74282 199.48377 206.81624 211.23964 216.4999 222.0391 226.4625 230.38776 234.26322 240.7688 251.69777 260.0066 266.23323 271.2145 276.1958 285.05256 293.35139 301.1023 306.6415 311.0649 314.97026 323.558 331.85685 338.22294 342.12828 347.10957 352.64878 356.57405 361.55534 365.97874 369.8542 372.62379 377.60508">UseropensFairSyncAIAgentChat/VoiceRequestFD/Loan/Query/Transaction</tspan></text>
<path transform="matrix(1,0,0,-1,198.304,14777.245)" stroke-width=".3985" stroke-linecap="butt" stroke-miterlimit="10" stroke-linejoin="miter" fill="none" stroke="#ffffff" d="M90.488-225.13558H-90.488C-92.68895-225.13558-94.47311-226.91974-94.47311-229.12068V-249.49727C-94.47311-251.69821-92.68895-253.48238-90.488-253.48238H90.488C92.68895-253.48238 94.47311-251.69821 94.47311-249.49727V-229.12068C94.47311-226.91974 92.68895-225.13558 90.488-225.13558ZM-94.47311-253.48238"/>
<text fill="#ffffff" xml:space="preserve" transform="matrix(1 0 -0 1 .0009994507 16322.79)" font-size="9.9626" font-family="Computer Modern"><tspan y="-1303.748" x="107.152 114.62395 121.53799 125.13448 130.4047 134.28015 138.70355 143.9638 151.15682 158.48929 162.91269 167.33609 172.31739 177.29868 182.83788 185.60749 189.48294 192.25255 197.23384 202.77304 210.59369 215.01709 223.31594 226.08554 231.62474 237.7119 248.79032 255.42542 260.4067 263.1763 267.5997 272.0231 274.7927 277.56233 282.27464">AIIntentRecognitionGemini+Voiceflow</tspan></text>
<path transform="matrix(1,0,0,-1,198.304,14777.245)" stroke-width=".3985" stroke-linecap="butt" stroke-miterlimit="10" stroke-linejoin="miter" fill="none" stroke="#ffffff" d="M132.62923-304.90525H-132.62923C-134.83017-304.90525-136.61434-306.6894-136.61434-308.89036V-329.2669C-136.61434-331.46788-134.83017-333.25205-132.62923-333.25205H132.62923C134.83017-333.25205 136.61434-331.46788 136.61434-329.2669V-308.89036C136.61434-306.6894 134.83017-304.90525 132.62923-304.90525ZM-136.61434-333.25205"/>
<text fill="#ffffff" xml:space="preserve" transform="matrix(1 0 -0 1 .0009918213 16322.791)" font-size="9.9626" font-family="Computer Modern"><tspan y="-1223.98" x="65.011 72.482959 79.396999 84.378299 88.30356 93.56381 100.81658 105.239978 108.009578 112.990879 116.89622 119.66582 122.71437 127.974628 130.74423 136.28343 144.58228 149.84253 155.38173 159.80513 163.7304 167.60585 170.37546 175.35675 180.89595 184.82122 188.41771 193.95691 198.38031 203.3616 211.66045 216.08385 222.171 229.64296 237.9418 242.9231 248.4623 253.7325 257.60795 263.69508 271.02757 273.79716 277.7224 286.3002 293.08476 296.99009 301.41349 304.46205 308.88545 312.79078 317.21418 322.7534 327.1768">AIasksclarifyingquestionsIncome,Amount,RiskPreference</tspan></text>
<path transform="matrix(1,0,0,-1,198.304,14777.245)" stroke-width=".3985" stroke-linecap="butt" stroke-miterlimit="10" stroke-linejoin="miter" fill="none" stroke="#ffffff" d="M135.20305-384.6749H-135.20305C-137.40399-384.6749-139.18816-386.45906-139.18816-388.66V-409.0366C-139.18816-411.23753-137.40399-413.0217-135.20305-413.0217H135.20305C137.40399-413.0217 139.18816-411.23753 139.18816-409.0366V-388.66C139.18816-386.45906 137.40399-384.6749 135.20305-384.6749ZM-139.18816-413.0217"/>
<text fill="#ffffff" xml:space="preserve" transform="matrix(1 0 -0 1 .000995636 16322.79)" font-size="9.9626" font-family="Computer Modern"><tspan y="-1144.211" x="62.438 70.04942 75.30968 80.848888 85.830188 94.12903 96.89863 104.639568 111.14514 113.91474 119.45395 124.43525 129.97446 134.39786 137.16747 142.14876 148.24588 153.77512 156.54473 164.57457 170.11377 172.88338 177.86467 181.74013 184.50974 189.49103 195.03023 201.81476 204.58437 207.35398 212.33527 215.10488 220.63411 223.40372 226.17333 228.94293 232.5494 241.1272 246.10849 251.64769 260.50444 270.74598 276.2852 281.26649 285.14195 288.45948 291.22908 297.59516 305.0671 310.60633 315.58763 318.3572 323.61747 327.54273 330.31233">DynamicFinancialSimulationEligibilityandWhat-ifAnalysis</tspan></text>
<path transform="matrix(1,0,0,-1,198.304,14777.245)" stroke-width=".3985" stroke-linecap="butt" stroke-miterlimit="10" stroke-linejoin="miter" fill="none" stroke="#ffffff" d="M54.4626-500.22126 0-473.03123-54.4626-500.22126 0-527.41128Z"/>
<text fill="#ffffff" xml:space="preserve" transform="matrix(1 0 -0 1 .0009918213 16322.79)" font-size="9.9626" font-family="Computer Modern"><tspan y="-1041.871" x="160.639 166.1782 170.60161 176.14081 180.06607 182.83568 186.71114 189.48075 194.46205 202.21297 209.68492 214.10832 217.98378 220.75339 225.73468 231.27388">SensitiveAction?</tspan></text>
<path transform="matrix(1,0,0,-1,198.304,14777.245)" stroke-width=".3985" stroke-linecap="butt" stroke-miterlimit="10" stroke-linejoin="miter" fill="none" stroke="#ffffff" d="M334.42674-486.04786H172.31603C170.11508-486.04786 168.33092-487.83204 168.33092-490.03297V-510.40953C168.33092-512.6105 170.11508-514.39468 172.31603-514.39468H334.42674C336.62767-514.39468 338.41184-512.6105 338.41184-510.40953V-490.03297C338.41184-487.83204 336.62767-486.04786 334.42674-486.04786ZM168.33092-514.39468"/>
<text fill="#ffffff" xml:space="preserve" transform="matrix(1 0 -0 1 .0009765625 16322.79)" font-size="9.9626" font-family="Computer Modern"><tspan y="-1041.871" x="407.518 415.26893 422.4619 432.564 439.89649 444.3199 447.63743 452.6287 457.0521 460.95744 463.72703 466.4966 469.26625 473.68965 478.67094 482.5464 485.31599 490.29728">OTPRe-verification</tspan></text>
<path transform="matrix(1,0,0,-1,198.304,14777.245)" stroke-width=".3985" stroke-linecap="butt" stroke-miterlimit="10" stroke-linejoin="miter" fill="none" stroke="#ffffff" d="M81.05534-587.4208H-81.05534C-83.25629-587.4208-85.04045-589.20498-85.04045-591.4059V-611.7825C-85.04045-613.98348-83.25629-615.7676-81.05534-615.7676H81.05534C83.25629-615.7676 85.04045-613.98348 85.04045-611.7825V-591.4059C85.04045-589.20498 83.25629-587.4208 81.05534-587.4208ZM-85.04045-615.7676"/>
<text fill="#ffffff" xml:space="preserve" transform="matrix(1 0 -0 1 .0010070801 16322.79)" font-size="9.9626" font-family="Computer Modern"><tspan y="-940.555" x="178.655 185.84799 190.82929 196.08954 199.965 202.7346 207.99486 213.53406">Continue</tspan></text>
<path transform="matrix(1,0,0,-1,198.304,14777.245)" stroke-width=".3985" stroke-linecap="butt" stroke-miterlimit="10" stroke-linejoin="miter" fill="none" stroke="#ffffff" d="M0-14.37263V-59.8208"/>
<path transform="matrix(0,1,1,0,198.304,14834.138)" d="M7.93657 0 .64343 2.74144 3.02744 0 .64343-2.74144Z" fill="#ffffff"/>
<path transform="matrix(0,1,1,0,198.304,14834.138)" stroke-width=".3985" stroke-linecap="butt" stroke-miterlimit="10" stroke-linejoin="miter" fill="none" stroke="#ffffff" d="M7.93657 0 .64343 2.74144 3.02744 0 .64343-2.74144Z"/>
<path transform="matrix(1,0,0,-1,198.304,14777.245)" stroke-width=".3985" stroke-linecap="butt" stroke-miterlimit="10" stroke-linejoin="miter" fill="none" stroke="#ffffff" d="M0-94.1423V-139.59046"/>
<path transform="matrix(0,1,1,0,198.304,14913.908)" d="M7.93657 0 .64343 2.74144 3.02744 0 .64343-2.74144Z" fill="#ffffff"/>
<path transform="matrix(0,1,1,0,198.304,14913.908)" stroke-width=".3985" stroke-linecap="butt" stroke-miterlimit="10" stroke-linejoin="miter" fill="none" stroke="#ffffff" d="M7.93657 0 .64343 2.74144 3.02744 0 .64343-2.74144Z"/>
<path transform="matrix(1,0,0,-1,198.304,14777.245)" stroke-width=".3985" stroke-linecap="butt" stroke-miterlimit="10" stroke-linejoin="miter" fill="none" stroke="#ffffff" d="M0-173.91196V-219.36013"/>
<path transform="matrix(0,1,1,0,198.304,14993.678)" d="M7.93657 0 .64343 2.74144 3.02744 0 .64343-2.74144Z" fill="#ffffff"/>
<path transform="matrix(0,1,1,0,198.304,14993.678)" stroke-width=".3985" stroke-linecap="butt" stroke-miterlimit="10" stroke-linejoin="miter" fill="none" stroke="#ffffff" d="M7.93657 0 .64343 2.74144 3.02744 0 .64343-2.74144Z"/>
<path transform="matrix(1,0,0,-1,198.304,14777.245)" stroke-width=".3985" stroke-linecap="butt" stroke-miterlimit="10" stroke-linejoin="miter" fill="none" stroke="#ffffff" d="M0-253.68163V-299.1298"/>
<path transform="matrix(0,1,1,0,198.304,15073.447)" d="M7.93657 0 .64343 2.74144 3.02744 0 .64343-2.74144Z" fill="#ffffff"/>
<path transform="matrix(0,1,1,0,198.304,15073.447)" stroke-width=".3985" stroke-linecap="butt" stroke-miterlimit="10" stroke-linejoin="miter" fill="none" stroke="#ffffff" d="M7.93657 0 .64343 2.74144 3.02744 0 .64343-2.74144Z"/>
<path transform="matrix(1,0,0,-1,198.304,14777.245)" stroke-width=".3985" stroke-linecap="butt" stroke-miterlimit="10" stroke-linejoin="miter" fill="none" stroke="#ffffff" d="M0-333.4513V-378.89945"/>
<path transform="matrix(0,1,1,0,198.304,15153.217)" d="M7.93657 0 .64343 2.74144 3.02744 0 .64343-2.74144Z" fill="#ffffff"/>
<path transform="matrix(0,1,1,0,198.304,15153.217)" stroke-width=".3985" stroke-linecap="butt" stroke-miterlimit="10" stroke-linejoin="miter" fill="none" stroke="#ffffff" d="M7.93657 0 .64343 2.74144 3.02744 0 .64343-2.74144Z"/>
<path transform="matrix(1,0,0,-1,198.304,14777.245)" stroke-width=".3985" stroke-linecap="butt" stroke-miterlimit="10" stroke-linejoin="miter" fill="none" stroke="#ffffff" d="M0-413.22096V-467.17106"/>
<path transform="matrix(0,1,1,0,198.304,15241.488)" d="M7.93657 0 .64343 2.74144 3.02744 0 .64343-2.74144Z" fill="#ffffff"/>
<path transform="matrix(0,1,1,0,198.304,15241.488)" stroke-width=".3985" stroke-linecap="butt" stroke-miterlimit="10" stroke-linejoin="miter" fill="none" stroke="#ffffff" d="M7.93657 0 .64343 2.74144 3.02744 0 .64343-2.74144Z"/>
<path transform="matrix(1,0,0,-1,198.304,14777.245)" stroke-width=".3985" stroke-linecap="butt" stroke-miterlimit="10" stroke-linejoin="miter" fill="none" stroke="#ffffff" d="M54.75021-500.22126H162.55547"/>
<path transform="matrix(1,0,0,-1,357.93165,15277.467)" d="M7.93657 0 .64343 2.74144 3.02744 0 .64343-2.74144Z" fill="#ffffff"/>
<path transform="matrix(1,0,0,-1,357.93165,15277.467)" stroke-width=".3985" stroke-linecap="butt" stroke-miterlimit="10" stroke-linejoin="miter" fill="none" stroke="#ffffff" d="M7.93657 0 .64343 2.74144 3.02744 0 .64343-2.74144Z"/>
<text fill="#ffffff" xml:space="preserve" transform="matrix(1 0 -0 1 .0010070801 16322.79)" font-size="9.9626" font-family="Computer Modern"><tspan y="-1048.85" x="302.243 308.88807 313.31147">Yes</tspan></text>
<path transform="matrix(1,0,0,-1,198.304,14777.245)" stroke-width=".3985" stroke-linecap="butt" stroke-miterlimit="10" stroke-linejoin="miter" fill="none" stroke="#ffffff" d="M253.37139-514.5939V-601.5942H90.81592"/>
<path transform="matrix(-1,-0,0,1,292.04774,15378.839)" d="M7.93657 0 .64343 2.74144 3.02744 0 .64343-2.74144Z" fill="#ffffff"/>
<path transform="matrix(-1,-0,0,1,292.04774,15378.839)" stroke-width=".3985" stroke-linecap="butt" stroke-miterlimit="10" stroke-linejoin="miter" fill="none" stroke="#ffffff" d="M7.93657 0 .64343 2.74144 3.02744 0 .64343-2.74144Z"/>
<path transform="matrix(1,0,0,-1,198.304,14777.245)" stroke-width=".3985" stroke-linecap="butt" stroke-miterlimit="10" stroke-linejoin="miter" fill="none" stroke="#ffffff" d="M0-527.6944V-581.6453"/>
<path transform="matrix(0,1,1,0,198.304,15355.963)" d="M7.93657 0 .64343 2.74144 3.02744 0 .64343-2.74144Z" fill="#ffffff"/>
<path transform="matrix(0,1,1,0,198.304,15355.963)" stroke-width=".3985" stroke-linecap="butt" stroke-miterlimit="10" stroke-linejoin="miter" fill="none" stroke="#ffffff" d="M7.93657 0 .64343 2.74144 3.02744 0 .64343-2.74144Z"/>
<text fill="#ffffff" xml:space="preserve" transform="matrix(1 0 -0 1 .0010070801 16322.79)" font-size="9.9626" font-family="Computer Modern"><tspan y="-984.69" x="201.823 209.29496">No</tspan></text>
<path transform="matrix(1,0,0,-1,198.304,14777.245)" stroke-width=".3985" stroke-linecap="butt" stroke-miterlimit="10" stroke-linejoin="miter" fill="none" stroke="#ffffff" d="M90.46725-667.1904H-90.46725C-92.6682-667.1904-94.45236-668.9746-94.45236-671.1756V-691.5521C-94.45236-693.75308-92.6682-695.53726-90.46725-695.53726H90.46725C92.6682-695.53726 94.45236-693.75308 94.45236-691.5521V-671.1756C94.45236-668.9746 92.6682-667.1904 90.46725-667.1904ZM-94.45236-695.53726"/>
<text fill="#ffffff" xml:space="preserve" transform="matrix(1 0 -0 1 .0010070801 16322.79)" font-size="9.9626" font-family="Computer Modern"><tspan y="-861.699" x="107.173 114.64494 121.55898 126.54028 130.96369 136.50289 140.92629 144.83162 149.81291 153.68837 158.11177 165.36455 172.97597 177.39937 181.82277 184.59238 188.51764 191.28725 196.26854 201.80774 206.78903 214.01192 221.34439 225.76779 230.1912 235.17249 243.47133 251.77017 256.19358 261.7328 267.272 272.2533 276.12876 278.89836 283.87965">AIgeneratesDecisionorRecommendation</tspan></text>
<path transform="matrix(1,0,0,-1,198.304,14777.245)" stroke-width=".3985" stroke-linecap="butt" stroke-miterlimit="10" stroke-linejoin="miter" fill="none" stroke="#ffffff" d="M113.07732-746.9601H-113.07732C-115.27824-746.9601-117.06242-748.74429-117.06242-750.9452V-771.32186C-117.06242-773.52279-115.27824-775.30697-113.07732-775.30697H113.07732C115.27824-775.30697 117.06242-773.52279 117.06242-771.32186V-750.9452C117.06242-748.74429 115.27824-746.9601 113.07732-746.9601ZM-117.06242-775.30697"/>
<text fill="#ffffff" xml:space="preserve" transform="matrix(1 0 -0 1 .0009994507 16322.79)" font-size="9.9626" font-family="Computer Modern"><tspan y="-781.93" x="84.563 91.347537 96.60779 102.146999 104.916599 109.897899 112.667499 118.2067 123.188 128.7272 131.49681 139.23777 146.57024 150.99364 155.97493 159.90019 164.88149 170.42069 173.19029 178.72949 183.71079 191.18274 196.72194 205.02079 210.00208 215.54128 218.85883 222.76416 227.18756 232.16886 237.70806 242.68935 248.22855 250.99816 258.7391 263.8599 269.3991 273.32438 277.19984 279.96943 282.739 285.50865 289.93205 294.91334 298.7888 301.55839 306.53968">ExplainableReasoningHuman-readableJustification</tspan></text>
<path transform="matrix(1,0,0,-1,198.304,14777.245)" stroke-width=".3985" stroke-linecap="butt" stroke-miterlimit="10" stroke-linejoin="miter" fill="none" stroke="#ffffff" d="M81.05534-826.7298H-81.05534C-83.25629-826.7298-85.04045-828.514-85.04045-830.7149V-851.09146C-85.04045-853.2924-83.25629-855.0766-81.05534-855.0766H81.05534C83.25629-855.0766 85.04045-853.2924 85.04045-851.09146V-830.7149C85.04045-828.514 83.25629-826.7298 81.05534-826.7298ZM-85.04045-855.0766"/>
<text fill="#ffffff" xml:space="preserve" transform="matrix(1 0 -0 1 .0009918213 16322.79)" font-size="9.9626" font-family="Computer Modern"><tspan y="-701.193" x="145.072 152.12554 154.89514 159.87644 167.11925 172.10054 177.63974 186.50646 192.17519 197.15648 199.92609 203.83142 209.37062 213.79402 217.71929 224.97206 232.16506 237.70426 242.12766 246.27211">BiasandFairnessCheck</tspan></text>
<path transform="matrix(1,0,0,-1,198.304,14777.245)" stroke-width=".3985" stroke-linecap="butt" stroke-miterlimit="10" stroke-linejoin="miter" fill="none" stroke="#ffffff" d="M81.05534-906.49948H-81.05534C-83.25629-906.49948-85.04045-908.2836-85.04045-910.48458V-930.86117C-85.04045-933.0621-83.25629-934.84628-81.05534-934.84628H81.05534C83.25629-934.84628 85.04045-933.0621 85.04045-930.86117V-910.48458C85.04045-908.2836 83.25629-906.49948 81.05534-906.49948ZM-85.04045-934.84628"/>
<text fill="#ffffff" xml:space="preserve" transform="matrix(1 0 -0 1 .0010070801 16322.79)" font-size="9.9626" font-family="Computer Modern"><tspan y="-622.393" x="144.892 152.36396 157.34525 161.27051 170.12726 177.73868 182.16208 186.58548 189.35509 193.28035 196.04996 201.03125 209.89797 215.43717 220.97637 229.2752 237.57405 242.55535 246.46068">HashDecisionSummary</tspan></text>
<path transform="matrix(1,0,0,-1,198.304,14777.245)" stroke-width=".3985" stroke-linecap="butt" stroke-miterlimit="10" stroke-linejoin="miter" fill="none" stroke="#ffffff" d="M0-615.96688V-661.415"/>
<path transform="matrix(0,1,1,0,198.304,15435.732)" d="M7.93657 0 .64343 2.74144 3.02744 0 .64343-2.74144Z" fill="#ffffff"/>
<path transform="matrix(0,1,1,0,198.304,15435.732)" stroke-width=".3985" stroke-linecap="butt" stroke-miterlimit="10" stroke-linejoin="miter" fill="none" stroke="#ffffff" d="M7.93657 0 .64343 2.74144 3.02744 0 .64343-2.74144Z"/>
<path transform="matrix(1,0,0,-1,198.304,14777.245)" stroke-width=".3985" stroke-linecap="butt" stroke-miterlimit="10" stroke-linejoin="miter" fill="none" stroke="#ffffff" d="M0-695.7365V-741.18466"/>
<path transform="matrix(0,1,1,0,198.304,15515.502)" d="M7.93657 0 .64343 2.74144 3.02744 0 .64343-2.74144Z" fill="#ffffff"/>
<path transform="matrix(0,1,1,0,198.304,15515.502)" stroke-width=".3985" stroke-linecap="butt" stroke-miterlimit="10" stroke-linejoin="miter" fill="none" stroke="#ffffff" d="M7.93657 0 .64343 2.74144 3.02744 0 .64343-2.74144Z"/>
<path transform="matrix(1,0,0,-1,198.304,14777.245)" stroke-width=".3985" stroke-linecap="butt" stroke-miterlimit="10" stroke-linejoin="miter" fill="none" stroke="#ffffff" d="M0-775.50619V-820.95437"/>
<path transform="matrix(0,1,1,0,198.304,15595.271)" d="M7.93657 0 .64343 2.74144 3.02744 0 .64343-2.74144Z" fill="#ffffff"/>
<path transform="matrix(0,1,1,0,198.304,15595.271)" stroke-width=".3985" stroke-linecap="butt" stroke-miterlimit="10" stroke-linejoin="miter" fill="none" stroke="#ffffff" d="M7.93657 0 .64343 2.74144 3.02744 0 .64343-2.74144Z"/>
<path transform="matrix(1,0,0,-1,198.304,14777.245)" stroke-width=".3985" stroke-linecap="butt" stroke-miterlimit="10" stroke-linejoin="miter" fill="none" stroke="#ffffff" d="M0-855.2758V-900.724"/>
<path transform="matrix(0,1,1,0,198.304,15675.041)" d="M7.93657 0 .64343 2.74144 3.02744 0 .64343-2.74144Z" fill="#ffffff"/>
<path transform="matrix(0,1,1,0,198.304,15675.041)" stroke-width=".3985" stroke-linecap="butt" stroke-miterlimit="10" stroke-linejoin="miter" fill="none" stroke="#ffffff" d="M7.93657 0 .64343 2.74144 3.02744 0 .64343-2.74144Z"/>
<path transform="matrix(1,0,0,-1,198.304,14777.245)" stroke-width=".3985" stroke-linecap="butt" stroke-miterlimit="10" stroke-linejoin="miter" fill="none" stroke="#ffffff" d="M63.3876-1026.5083 0-994.8558-63.3876-1026.5083 0-1058.1609Z"/>
<text fill="#ffffff" xml:space="preserve" transform="matrix(1 0 -0 1 .0009918213 16322.79)" font-size="9.9626" font-family="Computer Modern"><tspan y="-515.591" x="151.714 159.32543 164.58567 169.00907 174.54827 182.8471 187.27051 192.53076 196.40622 203.64904 207.24553 212.51573 217.49704 222.47834 225.24794 230.22925 234.65265 240.19185">DocumentsInvolved?</tspan></text>
<path transform="matrix(1,0,0,-1,198.304,14777.245)" stroke-width=".3985" stroke-linecap="butt" stroke-miterlimit="10" stroke-linejoin="miter" fill="none" stroke="#ffffff" d="M343.35176-1012.3349H181.24103C179.04009-1012.3349 177.25592-1014.1191 177.25592-1016.32V-1036.6965C177.25592-1038.8975 179.04009-1040.6817 181.24103-1040.6817H343.35176C345.5527-1040.6817 347.33686-1038.8975 347.33686-1036.6965V-1016.32C347.33686-1014.1191 345.5527-1012.3349 343.35176-1012.3349ZM177.25592-1040.6817"/>
<text fill="#ffffff" xml:space="preserve" transform="matrix(1 0 -0 1 .0010070801 16322.79)" font-size="9.9626" font-family="Computer Modern"><tspan y="-516.559" x="401.72 409.19197 414.73118 417.50077 422.48207 427.46336 436.3201 440.19557 448.50437 452.10087 458.8854 465.391 474.24775 479.508 482.2776 490.57643 497.36097 500.13056 505.66978 510.65107 514.5265">UploadtoIPFSviaPinata</tspan></text>
<path transform="matrix(1,0,0,-1,198.304,14777.245)" stroke-width=".3985" stroke-linecap="butt" stroke-miterlimit="10" stroke-linejoin="miter" fill="none" stroke="#ffffff" d="M343.35176-1092.1045H181.24103C179.04009-1092.1045 177.25592-1093.8887 177.25592-1096.0896V-1116.4663C177.25592-1118.6672 179.04009-1120.4513 181.24103-1120.4513H343.35176C345.5527-1120.4513 347.33686-1118.6672 347.33686-1116.4663V-1096.0896C347.33686-1093.8887 345.5527-1092.1045 343.35176-1092.1045ZM177.25592-1120.4513"/>
<text fill="#ffffff" xml:space="preserve" transform="matrix(1 0 -0 1 .0010070801 16322.79)" font-size="9.9626" font-family="Computer Modern"><tspan y="-435.822" x="380.439 385.9782 389.85368 394.83497 398.7403 406.48124 414.09266 419.3529 423.7763 429.31553 437.61439 442.03779 447.29804 454.501 461.97297 466.95426 470.87953 479.73628 484.71757 493.5743 500.62785 503.39744 508.65769 512.8021 517.7934 521.93789 527.47708 532.4584 535.22799">StoreDocumentHashonBlockchain</tspan></text>
<path transform="matrix(1,0,0,-1,198.304,14777.245)" stroke-width=".3985" stroke-linecap="butt" stroke-miterlimit="10" stroke-linejoin="miter" fill="none" stroke="#ffffff" d="M343.35176-1171.8743H181.24103C179.04009-1171.8743 177.25592-1173.6585 177.25592-1175.8594V-1196.2359C177.25592-1198.4369 179.04009-1200.2211 181.24103-1200.2211H343.35176C345.5527-1200.2211 347.33686-1198.4369 347.33686-1196.2359V-1175.8594C347.33686-1173.6585 345.5527-1171.8743 343.35176-1171.8743ZM177.25592-1200.2211"/>
<text fill="#ffffff" xml:space="preserve" transform="matrix(1 0 -0 1 .0010070801 16322.79)" font-size="9.9626" font-family="Computer Modern"><tspan y="-356.053" x="386.527 393.99897 399.53819 407.83705 410.60664 419.46339 426.10844 430.53184 434.43717 437.20677 439.97636 442.74598 447.16938 452.15068 456.02613 458.79573 463.777 472.63377 477.894 480.6636 488.96244 498.09815 502.5315 506.40696 511.38825 520.514 525.4953 529.43057">AdminVerificationviaMetaMask</tspan></text>
<path transform="matrix(1,0,0,-1,198.304,14777.245)" stroke-width=".3985" stroke-linecap="butt" stroke-miterlimit="10" stroke-linejoin="miter" fill="none" stroke="#ffffff" d="M81.05534-1118.1704H-81.05534C-83.25629-1118.1704-85.04045-1119.9545-85.04045-1122.1555V-1142.532C-85.04045-1144.733-83.25629-1146.5171-81.05534-1146.5171H81.05534C83.25629-1146.5171 85.04045-1144.733 85.04045-1142.532V-1122.1555C85.04045-1119.9545 83.25629-1118.1704 81.05534-1118.1704ZM-85.04045-1146.5171"/>
<text fill="#ffffff" xml:space="preserve" transform="matrix(1 0 -0 1 .0010070801 16322.791)" font-size="9.9626" font-family="Computer Modern"><tspan y="-409.812" x="178.655 185.84799 190.82929 196.08954 199.965 202.7346 207.99486 213.53406">Continue</tspan></text>
<path transform="matrix(1,0,0,-1,198.304,14777.245)" stroke-width=".3985" stroke-linecap="butt" stroke-miterlimit="10" stroke-linejoin="miter" fill="none" stroke="#ffffff" d="M0-935.0455V-988.9963"/>
<path transform="matrix(0,1,1,0,198.304,15763.313)" d="M7.93657 0 .64343 2.74144 3.02744 0 .64343-2.74144Z" fill="#ffffff"/>
<path transform="matrix(0,1,1,0,198.304,15763.313)" stroke-width=".3985" stroke-linecap="butt" stroke-miterlimit="10" stroke-linejoin="miter" fill="none" stroke="#ffffff" d="M7.93657 0 .64343 2.74144 3.02744 0 .64343-2.74144Z"/>
<path transform="matrix(1,0,0,-1,198.304,14777.245)" stroke-width=".3985" stroke-linecap="butt" stroke-miterlimit="10" stroke-linejoin="miter" fill="none" stroke="#ffffff" d="M63.67427-1026.5083H171.48047"/>
<path transform="matrix(1,0,0,-1,366.85664,15803.754)" d="M7.93657 0 .64343 2.74144 3.02744 0 .64343-2.74144Z" fill="#ffffff"/>
<path transform="matrix(1,0,0,-1,366.85664,15803.754)" stroke-width=".3985" stroke-linecap="butt" stroke-miterlimit="10" stroke-linejoin="miter" fill="none" stroke="#ffffff" d="M7.93657 0 .64343 2.74144 3.02744 0 .64343-2.74144Z"/>
<text fill="#ffffff" xml:space="preserve" transform="matrix(1 0 -0 1 .0010070801 16322.79)" font-size="9.9626" font-family="Computer Modern"><tspan y="-522.57" x="311.168 317.81306 322.23646">Yes</tspan></text>
<path transform="matrix(1,0,0,-1,198.304,14777.245)" stroke-width=".3985" stroke-linecap="butt" stroke-miterlimit="10" stroke-linejoin="miter" fill="none" stroke="#ffffff" d="M262.2964-1040.881V-1086.3291"/>
<path transform="matrix(0,1,1,0,460.6004,15860.646)" d="M7.93657 0 .64343 2.74144 3.02744 0 .64343-2.74144Z" fill="#ffffff"/>
<path transform="matrix(0,1,1,0,460.6004,15860.646)" stroke-width=".3985" stroke-linecap="butt" stroke-miterlimit="10" stroke-linejoin="miter" fill="none" stroke="#ffffff" d="M7.93657 0 .64343 2.74144 3.02744 0 .64343-2.74144Z"/>
<path transform="matrix(1,0,0,-1,198.304,14777.245)" stroke-width=".3985" stroke-linecap="butt" stroke-miterlimit="10" stroke-linejoin="miter" fill="none" stroke="#ffffff" d="M262.2964-1120.6506V-1166.0988"/>
<path transform="matrix(0,1,1,0,460.6004,15940.416)" d="M7.93657 0 .64343 2.74144 3.02744 0 .64343-2.74144Z" fill="#ffffff"/>
<path transform="matrix(0,1,1,0,460.6004,15940.416)" stroke-width=".3985" stroke-linecap="butt" stroke-miterlimit="10" stroke-linejoin="miter" fill="none" stroke="#ffffff" d="M7.93657 0 .64343 2.74144 3.02744 0 .64343-2.74144Z"/>
<path transform="matrix(1,0,0,-1,198.304,14777.245)" stroke-width=".3985" stroke-linecap="butt" stroke-miterlimit="10" stroke-linejoin="miter" fill="none" stroke="#ffffff" d="M262.2964-1171.6749V-1132.3438H90.81592"/>
<path transform="matrix(-1,-0,0,1,292.04774,15909.589)" d="M7.93657 0 .64343 2.74144 3.02744 0 .64343-2.74144Z" fill="#ffffff"/>
<path transform="matrix(-1,-0,0,1,292.04774,15909.589)" stroke-width=".3985" stroke-linecap="butt" stroke-miterlimit="10" stroke-linejoin="miter" fill="none" stroke="#ffffff" d="M7.93657 0 .64343 2.74144 3.02744 0 .64343-2.74144Z"/>
<path transform="matrix(1,0,0,-1,198.304,14777.245)" stroke-width=".3985" stroke-linecap="butt" stroke-miterlimit="10" stroke-linejoin="miter" fill="none" stroke="#ffffff" d="M0-1058.4441V-1112.3949"/>
<path transform="matrix(0,1,1,0,198.304,15886.712)" d="M7.93657 0 .64343 2.74144 3.02744 0 .64343-2.74144Z" fill="#ffffff"/>
<path transform="matrix(0,1,1,0,198.304,15886.712)" stroke-width=".3985" stroke-linecap="butt" stroke-miterlimit="10" stroke-linejoin="miter" fill="none" stroke="#ffffff" d="M7.93657 0 .64343 2.74144 3.02744 0 .64343-2.74144Z"/>
<text fill="#ffffff" xml:space="preserve" transform="matrix(1 0 -0 1 .0010070801 16322.79)" font-size="9.9626" font-family="Computer Modern"><tspan y="-453.947" x="201.823 209.29496">No</tspan></text>
<path transform="matrix(1,0,0,-1,198.304,14777.245)" stroke-width=".3985" stroke-linecap="butt" stroke-miterlimit="10" stroke-linejoin="miter" fill="none" stroke="#ffffff" d="M108.41414-1197.9401H-108.41414C-110.61508-1197.9401-112.39925-1199.7241-112.39925-1201.9252V-1222.3018C-112.39925-1224.5027-110.61508-1226.2868-108.41414-1226.2868H108.41414C110.61508-1226.2868 112.39925-1224.5027 112.39925-1222.3018V-1201.9252C112.39925-1199.7241 110.61508-1197.9401 108.41414-1197.9401ZM-112.39925-1226.2868"/>
<text fill="#ffffff" xml:space="preserve" transform="matrix(1 0 -0 1 .0009994507 16322.79)" font-size="9.9626" font-family="Computer Modern"><tspan y="-330.956" x="89.226 96.69795 101.67925 105.604518 114.461269 118.38653 122.26198 127.24328 131.14862 135.57202 144.43874 149.42003 158.27678 165.06131 168.93677 174.47597 178.89937 182.8047 187.2281 192.7673 204.3837 209.9229 214.3463 220.16445 225.14574 227.91535 230.68495 238.9838 244.523 252.82184 257.80314 261.70848 268.91145 276.10444 281.08573 286.34599 290.22145 294.12678 299.10807 303.53147">HashstoredonEthereumSepoliaSmartContract</tspan></text>
<path transform="matrix(1,0,0,-1,198.304,14777.245)" stroke-width=".3985" stroke-linecap="butt" stroke-miterlimit="10" stroke-linejoin="miter" fill="none" stroke="#ffffff" d="M99.62752-1277.7097H-99.62752C-101.82846-1277.7097-103.61263-1279.4939-103.61263-1281.6948V-1302.0714C-103.61263-1304.2723-101.82846-1306.0565-99.62752-1306.0565H99.62752C101.82846-1306.0565 103.61263-1304.2723 103.61263-1302.0714V-1281.6948C103.61263-1279.4939 101.82846-1277.7097 99.62752-1277.7097ZM-103.61263-1306.0565"/>
<text fill="#ffffff" xml:space="preserve" transform="matrix(1 0 -0 1 .0009994507 16322.791)" font-size="9.9626" font-family="Computer Modern"><tspan y="-251.188" x="98.013 105.06652 107.83612 113.096378 117.240818 122.222118 126.37652 131.90576 136.88706 139.65666 148.52338 155.3079 160.28922 164.71262 169.97287 177.16588 183.3925 186.16211 190.08737 193.96283 198.3962 203.92543 208.3588 212.25417 219.72612 225.54427 231.08347 236.06476 239.94022 244.36362 251.6164 259.2278 264.2091 268.13438 273.39463 279.2128 284.1941 289.17539 293.08073">BlockchainEventListenerUpdatesDashboard</tspan></text>
<path transform="matrix(1,0,0,-1,198.304,14777.245)" stroke-width=".3985" stroke-linecap="butt" stroke-miterlimit="10" stroke-linejoin="miter" fill="none" stroke="#ffffff" d="M114.14275-1357.4794H-114.14275C-116.34369-1357.4794-118.12785-1359.2636-118.12785-1361.4645V-1381.8411C-118.12785-1384.042-116.34369-1385.8262-114.14275-1385.8262H114.14275C116.34369-1385.8262 118.12785-1384.042 118.12785-1381.8411V-1361.4645C118.12785-1359.2636 116.34369-1357.4794 114.14275-1357.4794ZM-118.12785-1385.8262"/>
<text fill="#ffffff" xml:space="preserve" transform="matrix(1 0 -0 1 .0009994507 16322.79)" font-size="9.9626" font-family="Computer Modern"><tspan y="-171.419" x="83.498 90.00358 92.77318 98.312389 103.293689 109.38083 116.7133 121.136699 125.06196 130.60117 133.37078 140.57375 148.18517 152.60857 155.37818 158.14778 163.12909 167.55249 171.45783 175.88123 181.42043 188.61342 191.38303 195.25849 204.11524 210.48134 214.38668 219.36797 224.90717 228.83243 234.37163 239.35292 243.25826 247.68166 252.94191 260.1349 266.91944 272.1797 277.7189 280.4885 285.4698 291.009 295.9903 299.86576 302.63536 307.61665">FinalResultDeliveredwithTransparentExplanation</tspan></text>
<path transform="matrix(1,0,0,-1,198.304,14777.245)" stroke-width=".3985" stroke-linecap="butt" stroke-miterlimit="10" stroke-linejoin="miter" fill="none" stroke="#ffffff" d="M87.51994-1437.249H-87.51994C-89.72089-1437.249-91.50505-1439.0332-91.50505-1441.2341V-1461.6107C-91.50505-1463.8117-89.72089-1465.5958-87.51994-1465.5958H87.51994C89.72089-1465.5958 91.50505-1463.8117 91.50505-1461.6107V-1441.2341C91.50505-1439.0332 89.72089-1437.249 87.51994-1437.249ZM-91.50505-1465.5958"/>
<text fill="#ffffff" xml:space="preserve" transform="matrix(1 0 -0 1 .0009994507 16322.791)" font-size="9.9626" font-family="Computer Modern"><tspan y="-91.65" x="110.12 117.59195 121.51721 125.940608 133.1635 140.35649 145.33779 150.87699 154.80225 159.22565 164.49585 171.68886 176.67015 182.20935 191.0661 198.67752 203.65882 207.53427 215.84308 223.03607 228.01737 233.27762 237.15308 241.05841 246.0397 252.12686 259.87779 265.417 269.29246 272.06205 277.04335 282.58256">UserConsentandDataControlOptions</tspan></text>
<path transform="matrix(1,0,0,-1,198.304,14777.245)" stroke-width=".3985" stroke-linecap="butt" stroke-miterlimit="10" stroke-linejoin="miter" fill="none" stroke="#ffffff" d="M81.15485-1517.0187H-81.15485C-83.35579-1517.0187-85.13995-1518.8029-85.13995-1521.0038V-1541.3804C-85.13995-1543.5813-83.35579-1545.3655-81.15485-1545.3655H81.15485C83.35579-1545.3655 85.13995-1543.5813 85.13995-1541.3804V-1521.0038C85.13995-1518.8029 83.35579-1517.0187 81.15485-1517.0187ZM-85.13995-1545.3655"/>
<text fill="#ffffff" xml:space="preserve" transform="matrix(1 0 -0 1 .0009994507 16322.79)" font-size="9.9626" font-family="Computer Modern"><tspan y="-11.882" x="116.485 123.26953 128.80873 134.34793 141.54094 147.90705 152.88834 161.18718 167.00533 171.42873 175.33406 178.65161 184.19081 188.09615 193.35639 198.33768 204.70378 212.03626 216.45966 220.88306 225.86435 229.76969 238.62644 245.81943 250.80072 259.09959 264.6388 267.4084 271.8318 275.70726">End:Tamper-proofRecordComplete</tspan></text>
<path transform="matrix(1,0,0,-1,198.304,14777.245)" stroke-width=".3985" stroke-linecap="butt" stroke-miterlimit="10" stroke-linejoin="miter" fill="none" stroke="#ffffff" d="M0-1146.7164V-1192.1646"/>
<path transform="matrix(0,1,1,0,198.304,15966.481)" d="M7.93657 0 .64343 2.74144 3.02744 0 .64343-2.74144Z" fill="#ffffff"/>
<path transform="matrix(0,1,1,0,198.304,15966.481)" stroke-width=".3985" stroke-linecap="butt" stroke-miterlimit="10" stroke-linejoin="miter" fill="none" stroke="#ffffff" d="M7.93657 0 .64343 2.74144 3.02744 0 .64343-2.74144Z"/>
<path transform="matrix(1,0,0,-1,198.304,14777.245)" stroke-width=".3985" stroke-linecap="butt" stroke-miterlimit="10" stroke-linejoin="miter" fill="none" stroke="#ffffff" d="M0-1226.4861V-1271.9342"/>
<path transform="matrix(0,1,1,0,198.304,16046.252)" d="M7.93657 0 .64343 2.74144 3.02744 0 .64343-2.74144Z" fill="#ffffff"/>
<path transform="matrix(0,1,1,0,198.304,16046.252)" stroke-width=".3985" stroke-linecap="butt" stroke-miterlimit="10" stroke-linejoin="miter" fill="none" stroke="#ffffff" d="M7.93657 0 .64343 2.74144 3.02744 0 .64343-2.74144Z"/>
<path transform="matrix(1,0,0,-1,198.304,14777.245)" stroke-width=".3985" stroke-linecap="butt" stroke-miterlimit="10" stroke-linejoin="miter" fill="none" stroke="#ffffff" d="M0-1306.2557V-1351.7039"/>
<path transform="matrix(0,1,1,0,198.304,16126.021)" d="M7.93657 0 .64343 2.74144 3.02744 0 .64343-2.74144Z" fill="#ffffff"/>
<path transform="matrix(0,1,1,0,198.304,16126.021)" stroke-width=".3985" stroke-linecap="butt" stroke-miterlimit="10" stroke-linejoin="miter" fill="none" stroke="#ffffff" d="M7.93657 0 .64343 2.74144 3.02744 0 .64343-2.74144Z"/>
<path transform="matrix(1,0,0,-1,198.304,14777.245)" stroke-width=".3985" stroke-linecap="butt" stroke-miterlimit="10" stroke-linejoin="miter" fill="none" stroke="#ffffff" d="M0-1386.0254V-1431.4735"/>
<path transform="matrix(0,1,1,0,198.304,16205.791)" d="M7.93657 0 .64343 2.74144 3.02744 0 .64343-2.74144Z" fill="#ffffff"/>
<path transform="matrix(0,1,1,0,198.304,16205.791)" stroke-width=".3985" stroke-linecap="butt" stroke-miterlimit="10" stroke-linejoin="miter" fill="none" stroke="#ffffff" d="M7.93657 0 .64343 2.74144 3.02744 0 .64343-2.74144Z"/>
<path transform="matrix(1,0,0,-1,198.304,14777.245)" stroke-width=".3985" stroke-linecap="butt" stroke-miterlimit="10" stroke-linejoin="miter" fill="none" stroke="#ffffff" d="M0-1465.795V-1511.2432"/>
<path transform="matrix(0,1,1,0,198.304,16285.561)" d="M7.93657 0 .64343 2.74144 3.02744 0 .64343-2.74144Z" fill="#ffffff"/>
<path transform="matrix(0,1,1,0,198.304,16285.561)" stroke-width=".3985" stroke-linecap="butt" stroke-miterlimit="10" stroke-linejoin="miter" fill="none" stroke="#ffffff" d="M7.93657 0 .64343 2.74144 3.02744 0 .64343-2.74144Z"/>
</svg>
