<svg xmlns="http://www.w3.org/2000/svg" xmlns:xlink="http://www.w3.org/1999/xlink" xmlns:inkscape="http://www.inkscape.org/namespaces/inkscape" version="1.1" width="549.71" height="1579.843" viewBox="0 0 549.71 1579.843">
<path transform="matrix(1,0,0,-1,192.215,24.33606)" stroke-width=".3985" stroke-linecap="butt" stroke-miterlimit="10" stroke-linejoin="miter" fill="none" stroke="#ffffff" d="M81.05534 14.17339H-81.05534C-83.25629 14.17339-85.04045 12.38922-85.04045 10.18828V-10.18828C-85.04045-12.38922-83.25629-14.17339-81.05534-14.17339H81.05534C83.25629-14.17339 85.04045-12.38922 85.04045-10.18828V10.18828C85.04045 12.38922 83.25629 14.17339 81.05534 14.17339ZM-85.04045-14.17339"/>
<text xml:space="preserve" transform="matrix(1 0 -0 1 -.0000076293949 1579.843)" font-size="9.9626" font-family="Computer Modern" fill="#ffffff"><tspan y="-1552.048" x="125.161 130.70021 134.57567 139.55696 143.4623 147.33776 154.53076 162.00272 165.92798 170.35138 177.58423 182.56552 186.98892 191.41233 195.83573 199.76099 203.68625 208.10965 215.35247 221.99753 226.97882 232.51802 236.42336 243.47689 248.45818 253.99738" fill="#ffffff">Start:UseraccessesYourBank</tspan></text>
<path transform="matrix(1,0,0,-1,192.215,24.33606)" stroke-width=".3985" stroke-linecap="butt" stroke-miterlimit="10" stroke-linejoin="miter" fill="none" stroke="#ffffff" d="M97.48276-65.59625H-97.48276C-99.6837-65.59625-101.46786-67.38042-101.46786-69.58136V-89.95795C-101.46786-92.15889-99.6837-93.94305-97.48276-93.94305H97.48276C99.6837-93.94305 101.46786-92.15889 101.46786-89.95795V-69.58136C101.46786-67.38042 99.6837-65.59625 97.48276-65.59625ZM-101.46786-93.94305"/>
<text xml:space="preserve" transform="matrix(1 0 -0 1 -.0000076293949 1579.8432)" font-size="9.9626" font-family="Computer Modern" fill="#ffffff"><tspan y="-1473.248" x="94.069 101.540958 105.46622 109.88961 117.112499 124.58444 130.12364 133.9991 139.5383 143.9617 149.2319 153.10736 155.87697 160.30037 165.28166 169.15712 171.92673 176.90802 182.44722 188.67385 193.65514 198.63643 201.40604 210.26279 221.33124 229.08214 236.27513 246.37722 251.63747 254.40708 262.71589 269.90888 277.10188 279.87147 282.64106 285.41065" fill="#ffffff">UserAuthenticationLogin+OTPviaTwilio</tspan></text>
<path transform="matrix(1,0,0,-1,192.215,24.33606)" stroke-width=".3985" stroke-linecap="butt" stroke-miterlimit="10" stroke-linejoin="miter" fill="none" stroke="#ffffff" d="M178.07062-145.36592H-178.07062C-180.27156-145.36592-182.05573-147.15009-182.05573-149.35103V-169.7276C-182.05573-171.92855-180.27156-173.7127-178.07062-173.7127H178.07062C180.27156-173.7127 182.05573-171.92855 182.05573-169.7276V-149.35103C182.05573-147.15009 180.27156-145.36592 178.07062-145.36592ZM-182.05573-173.7127"/>
<text xml:space="preserve" transform="matrix(1 0 -0 1 -.000005722046 1579.843)" font-size="9.9626" font-family="Computer Modern" fill="#ffffff"><tspan y="-1393.479" x="13.482 20.95395 24.879216 29.30261 36.525499 41.506799 47.32496 51.748353 57.28756 64.54034 70.20905 75.19035 77.95995 81.865299 87.4045 92.66476 98.203968 105.9449 113.416858 120.34086 127.812808 132.7941 137.2175 142.47776 146.35321 153.5462 159.0854 164.0667 167.94216 172.92345 179.56851 184.5498 187.31941 191.74282 199.48377 206.81624 211.23964 216.4999 222.0391 226.4625 230.38776 234.26322 238.13867 244.64426 252.25568 257.23698 263.4636 268.4449 273.42619 278.9654 283.9467 291.6976 297.23683 301.66023 305.56556 310.8258 315.8071 322.1732 326.07853 331.0598 336.59904 340.5243 345.50559 349.929 353.80445 356.57405 361.55534 367.09455" fill="#ffffff">UseropensFairSyncAIAgentChat/VoiceRequest(FD/Loan/Query/Transaction)</tspan></text>
<path transform="matrix(1,0,0,-1,192.215,24.33606)" stroke-width=".3985" stroke-linecap="butt" stroke-miterlimit="10" stroke-linejoin="miter" fill="none" stroke="#ffffff" d="M90.488-225.13558H-90.488C-92.68895-225.13558-94.47311-226.91974-94.47311-229.12068V-249.49727C-94.47311-251.69821-92.68895-253.48238-90.488-253.48238H90.488C92.68895-253.48238 94.47311-251.69821 94.47311-249.49727V-229.12068C94.47311-226.91974 92.68895-225.13558 90.488-225.13558ZM-94.47311-253.48238"/>
<text xml:space="preserve" transform="matrix(1 0 -0 1 -.0000076293949 1579.8432)" font-size="9.9626" font-family="Computer Modern" fill="#ffffff"><tspan y="-1313.711" x="101.064 108.53595 115.44999 119.046489 124.3167 128.19216 132.61556 137.87581 145.06882 152.40129 156.82469 161.2481 166.22939 171.21068 176.74988 179.51949 183.39495 186.16455 191.14585 196.68505 204.50569 208.9291 217.22794 219.99755 225.53675 231.6239 242.70232 249.33742 254.31871 257.08833 261.51173 265.93513 268.7047 271.47434 276.18666" fill="#ffffff">AIIntentRecognitionGemini+Voiceflow</tspan></text>
<path transform="matrix(1,0,0,-1,192.215,24.33606)" stroke-width=".3985" stroke-linecap="butt" stroke-miterlimit="10" stroke-linejoin="miter" fill="none" stroke="#ffffff" d="M132.62923-304.90525H-132.62923C-134.83017-304.90525-136.61434-306.6894-136.61434-308.89036V-329.2669C-136.61434-331.46788-134.83017-333.25205-132.62923-333.25205H132.62923C134.83017-333.25205 136.61434-331.46788 136.61434-329.2669V-308.89036C136.61434-306.6894 134.83017-304.90525 132.62923-304.90525ZM-136.61434-333.25205"/>
<text xml:space="preserve" transform="matrix(1 0 -0 1 -.000011444092 1579.843)" font-size="9.9626" font-family="Computer Modern" fill="#ffffff"><tspan y="-1233.942" x="58.923 66.39495 73.30899 78.29029 82.21555 87.47581 94.72858 99.15197 101.92157 106.90287 110.80821 113.57781 116.626369 121.88662 124.65622 130.19542 138.49427 143.75452 149.29372 153.71712 157.64238 161.51784 164.28745 169.26874 174.80794 178.7332 182.3297 187.8689 192.2923 197.27359 205.57244 209.99584 216.083 223.55495 231.85379 236.83509 242.37429 247.64449 251.51995 257.6071 264.93959 267.70918 271.63444 280.21223 286.99678 290.9021 295.3255 298.37406 302.79747 306.7028 311.1262 316.6654 321.0888" fill="#ffffff">AIasksclarifyingquestionsIncome,Amount,RiskPreference</tspan></text>
<path transform="matrix(1,0,0,-1,192.215,24.33606)" stroke-width=".3985" stroke-linecap="butt" stroke-miterlimit="10" stroke-linejoin="miter" fill="none" stroke="#ffffff" d="M131.05187-384.6749H-131.05187C-133.2528-384.6749-135.03697-386.45906-135.03697-388.66V-409.0366C-135.03697-411.23753-133.2528-413.0217-131.05187-413.0217H131.05187C133.2528-413.0217 135.03697-411.23753 135.03697-409.0366V-388.66C135.03697-386.45906 133.2528-384.6749 131.05187-384.6749ZM-135.03697-413.0217"/>
<text xml:space="preserve" transform="matrix(1 0 -0 1 0 1579.843)" font-size="9.9626" font-family="Computer Modern" fill="#ffffff"><tspan y="-1154.174" x="60.5 68.11143 73.37168 78.91089 83.89219 92.19103 94.96063 102.70157 109.207149 111.976749 117.51595 122.49725 128.03646 132.45986 135.22946 140.21076 146.30788 151.84708 154.61669 162.63658 168.17578 170.94539 175.92668 179.80214 182.57175 187.55304 193.09224 199.87677 202.64638 205.41599 210.39728 213.16689 218.70609 221.4757 224.2453 227.00495 230.6114 239.18921 250.25766 260.4992 266.03843 271.0197 274.89518 278.2127 280.9823 287.35838 294.83033 300.36955 305.35084 308.12043 313.38069 317.30595 320.07554" fill="#ffffff">DynamicFinancialSimulationEligibility&amp;What-ifAnalysis</tspan></text>
<path transform="matrix(1,0,0,-1,192.215,24.33606)" stroke-width=".3985" stroke-linecap="butt" stroke-miterlimit="10" stroke-linejoin="miter" fill="none" stroke="#ffffff" d="M54.4626-500.22126 0-473.03123-54.4626-500.22126 0-527.41128Z"/>
<text xml:space="preserve" transform="matrix(1 0 -0 1 0 1579.843)" font-size="9.9626" font-family="Computer Modern" fill="#ffffff"><tspan y="-1051.833" x="154.551 160.0902 164.5136 170.0528 173.97806 176.74767 180.62313 183.39273 188.37404 196.12496 203.59691 208.02031 211.89577 214.66538 219.64667 225.18587" fill="#ffffff">SensitiveAction?</tspan></text>
<path transform="matrix(1,0,0,-1,192.215,24.33606)" stroke-width=".3985" stroke-linecap="butt" stroke-miterlimit="10" stroke-linejoin="miter" fill="none" stroke="#ffffff" d="M334.42674-486.04786H172.31603C170.11508-486.04786 168.33092-487.83204 168.33092-490.03297V-510.40953C168.33092-512.6105 170.11508-514.39468 172.31603-514.39468H334.42674C336.62767-514.39468 338.41184-512.6105 338.41184-510.40953V-490.03297C338.41184-487.83204 336.62767-486.04786 334.42674-486.04786ZM168.33092-514.39468"/>
<text xml:space="preserve" transform="matrix(1 0 -0 1 .000030517579 1579.843)" font-size="9.9626" font-family="Computer Modern" fill="#ffffff"><tspan y="-1051.833" x="401.429 409.1799 416.3729 426.47499 433.80747 438.23088 441.5484 446.53968 450.96308 454.8684 457.638 460.4076 463.17723 467.60063 472.5819 476.45738 479.22697 484.20826" fill="#ffffff">OTPRe-verification</tspan></text>
<path transform="matrix(1,0,0,-1,192.215,24.33606)" stroke-width=".3985" stroke-linecap="butt" stroke-miterlimit="10" stroke-linejoin="miter" fill="none" stroke="#ffffff" d="M81.05534-587.4208H-81.05534C-83.25629-587.4208-85.04045-589.20498-85.04045-591.4059V-611.7825C-85.04045-613.98348-83.25629-615.7676-81.05534-615.7676H81.05534C83.25629-615.7676 85.04045-613.98348 85.04045-611.7825V-591.4059C85.04045-589.20498 83.25629-587.4208 81.05534-587.4208ZM-85.04045-615.7676"/>
<text xml:space="preserve" transform="matrix(1 0 -0 1 0 1579.843)" font-size="9.9626" font-family="Computer Modern" fill="#ffffff"><tspan y="-950.517" x="172.567 179.76 184.74129 190.00154 193.877 196.6466 201.90686 207.44606" fill="#ffffff">Continue</tspan></text>
<path transform="matrix(1,0,0,-1,192.215,24.33606)" stroke-width=".3985" stroke-linecap="butt" stroke-miterlimit="10" stroke-linejoin="miter" fill="none" stroke="#ffffff" d="M0-14.37263V-59.8208"/>
<path transform="matrix(0,1,1,0,192.215,81.229038)" d="M7.93657 0 .64343 2.74144 3.02744 0 .64343-2.74144Z" fill="#ffffff"/>
<path transform="matrix(0,1,1,0,192.215,81.229038)" stroke-width=".3985" stroke-linecap="butt" stroke-miterlimit="10" stroke-linejoin="miter" fill="none" stroke="#ffffff" d="M7.93657 0 .64343 2.74144 3.02744 0 .64343-2.74144Z"/>
<path transform="matrix(1,0,0,-1,192.215,24.33606)" stroke-width=".3985" stroke-linecap="butt" stroke-miterlimit="10" stroke-linejoin="miter" fill="none" stroke="#ffffff" d="M0-94.1423V-139.59046"/>
<path transform="matrix(0,1,1,0,192.215,160.99869)" d="M7.93657 0 .64343 2.74144 3.02744 0 .64343-2.74144Z" fill="#ffffff"/>
<path transform="matrix(0,1,1,0,192.215,160.99869)" stroke-width=".3985" stroke-linecap="butt" stroke-miterlimit="10" stroke-linejoin="miter" fill="none" stroke="#ffffff" d="M7.93657 0 .64343 2.74144 3.02744 0 .64343-2.74144Z"/>
<path transform="matrix(1,0,0,-1,192.215,24.33606)" stroke-width=".3985" stroke-linecap="butt" stroke-miterlimit="10" stroke-linejoin="miter" fill="none" stroke="#ffffff" d="M0-173.91196V-219.36013"/>
<path transform="matrix(0,1,1,0,192.215,240.76836)" d="M7.93657 0 .64343 2.74144 3.02744 0 .64343-2.74144Z" fill="#ffffff"/>
<path transform="matrix(0,1,1,0,192.215,240.76836)" stroke-width=".3985" stroke-linecap="butt" stroke-miterlimit="10" stroke-linejoin="miter" fill="none" stroke="#ffffff" d="M7.93657 0 .64343 2.74144 3.02744 0 .64343-2.74144Z"/>
<path transform="matrix(1,0,0,-1,192.215,24.33606)" stroke-width=".3985" stroke-linecap="butt" stroke-miterlimit="10" stroke-linejoin="miter" fill="none" stroke="#ffffff" d="M0-253.68163V-299.1298"/>
<path transform="matrix(0,1,1,0,192.215,320.538)" d="M7.93657 0 .64343 2.74144 3.02744 0 .64343-2.74144Z" fill="#ffffff"/>
<path transform="matrix(0,1,1,0,192.215,320.538)" stroke-width=".3985" stroke-linecap="butt" stroke-miterlimit="10" stroke-linejoin="miter" fill="none" stroke="#ffffff" d="M7.93657 0 .64343 2.74144 3.02744 0 .64343-2.74144Z"/>
<path transform="matrix(1,0,0,-1,192.215,24.33606)" stroke-width=".3985" stroke-linecap="butt" stroke-miterlimit="10" stroke-linejoin="miter" fill="none" stroke="#ffffff" d="M0-333.4513V-378.89945"/>
<path transform="matrix(0,1,1,0,192.215,400.30769)" d="M7.93657 0 .64343 2.74144 3.02744 0 .64343-2.74144Z" fill="#ffffff"/>
<path transform="matrix(0,1,1,0,192.215,400.30769)" stroke-width=".3985" stroke-linecap="butt" stroke-miterlimit="10" stroke-linejoin="miter" fill="none" stroke="#ffffff" d="M7.93657 0 .64343 2.74144 3.02744 0 .64343-2.74144Z"/>
<path transform="matrix(1,0,0,-1,192.215,24.33606)" stroke-width=".3985" stroke-linecap="butt" stroke-miterlimit="10" stroke-linejoin="miter" fill="none" stroke="#ffffff" d="M0-413.22096V-467.17106"/>
<path transform="matrix(0,1,1,0,192.215,488.57929)" d="M7.93657 0 .64343 2.74144 3.02744 0 .64343-2.74144Z" fill="#ffffff"/>
<path transform="matrix(0,1,1,0,192.215,488.57929)" stroke-width=".3985" stroke-linecap="butt" stroke-miterlimit="10" stroke-linejoin="miter" fill="none" stroke="#ffffff" d="M7.93657 0 .64343 2.74144 3.02744 0 .64343-2.74144Z"/>
<path transform="matrix(1,0,0,-1,192.215,24.33606)" stroke-width=".3985" stroke-linecap="butt" stroke-miterlimit="10" stroke-linejoin="miter" fill="none" stroke="#ffffff" d="M54.75021-500.22126H162.55547"/>
<path transform="matrix(1,0,0,-1,351.84266,524.5573)" d="M7.93657 0 .64343 2.74144 3.02744 0 .64343-2.74144Z" fill="#ffffff"/>
<path transform="matrix(1,0,0,-1,351.84266,524.5573)" stroke-width=".3985" stroke-linecap="butt" stroke-miterlimit="10" stroke-linejoin="miter" fill="none" stroke="#ffffff" d="M7.93657 0 .64343 2.74144 3.02744 0 .64343-2.74144Z"/>
<text xml:space="preserve" transform="matrix(1 0 -0 1 0 1579.843)" font-size="9.9626" font-family="Computer Modern" fill="#ffffff"><tspan y="-1058.812" x="296.155 302.80006 307.22346" fill="#ffffff">Yes</tspan></text>
<path transform="matrix(1,0,0,-1,192.215,24.33606)" stroke-width=".3985" stroke-linecap="butt" stroke-miterlimit="10" stroke-linejoin="miter" fill="none" stroke="#ffffff" d="M253.37139-514.5939V-601.5942H90.81592"/>
<path transform="matrix(-1,-0,0,1,285.95875,625.93026)" d="M7.93657 0 .64343 2.74144 3.02744 0 .64343-2.74144Z" fill="#ffffff"/>
<path transform="matrix(-1,-0,0,1,285.95875,625.93026)" stroke-width=".3985" stroke-linecap="butt" stroke-miterlimit="10" stroke-linejoin="miter" fill="none" stroke="#ffffff" d="M7.93657 0 .64343 2.74144 3.02744 0 .64343-2.74144Z"/>
<path transform="matrix(1,0,0,-1,192.215,24.33606)" stroke-width=".3985" stroke-linecap="butt" stroke-miterlimit="10" stroke-linejoin="miter" fill="none" stroke="#ffffff" d="M0-527.6944V-581.6453"/>
<path transform="matrix(0,1,1,0,192.215,603.0536)" d="M7.93657 0 .64343 2.74144 3.02744 0 .64343-2.74144Z" fill="#ffffff"/>
<path transform="matrix(0,1,1,0,192.215,603.0536)" stroke-width=".3985" stroke-linecap="butt" stroke-miterlimit="10" stroke-linejoin="miter" fill="none" stroke="#ffffff" d="M7.93657 0 .64343 2.74144 3.02744 0 .64343-2.74144Z"/>
<text xml:space="preserve" transform="matrix(1 0 -0 1 0 1579.843)" font-size="9.9626" font-family="Computer Modern" fill="#ffffff"><tspan y="-994.653" x="195.735 203.20696" fill="#ffffff">No</tspan></text>
<path transform="matrix(1,0,0,-1,192.215,24.33606)" stroke-width=".3985" stroke-linecap="butt" stroke-miterlimit="10" stroke-linejoin="miter" fill="none" stroke="#ffffff" d="M90.46725-667.1904H-90.46725C-92.6682-667.1904-94.45236-668.9746-94.45236-671.1756V-691.5521C-94.45236-693.75308-92.6682-695.53726-90.46725-695.53726H90.46725C92.6682-695.53726 94.45236-693.75308 94.45236-691.5521V-671.1756C94.45236-668.9746 92.6682-667.1904 90.46725-667.1904ZM-94.45236-695.53726"/>
<text xml:space="preserve" transform="matrix(1 0 -0 1 0 1579.843)" font-size="9.9626" font-family="Computer Modern" fill="#ffffff"><tspan y="-871.662" x="101.085 108.556949 115.470989 120.452289 124.87568 130.41489 134.83829 138.74362 143.72492 147.60037 152.02378 159.27655 166.88797 171.31137 175.73477 178.50438 182.42964 185.19925 190.18054 195.71974 200.70104 207.92392 215.2564 219.6798 224.1032 229.08449 237.38333 245.68218 250.10558 255.64478 261.184 266.16529 270.04075 272.81034 277.79164" fill="#ffffff">AIgeneratesDecisionorRecommendation</tspan></text>
<path transform="matrix(1,0,0,-1,192.215,24.33606)" stroke-width=".3985" stroke-linecap="butt" stroke-miterlimit="10" stroke-linejoin="miter" fill="none" stroke="#ffffff" d="M113.07732-746.9601H-113.07732C-115.27824-746.9601-117.06242-748.74429-117.06242-750.9452V-771.32186C-117.06242-773.52279-115.27824-775.30697-113.07732-775.30697H113.07732C115.27824-775.30697 117.06242-773.52279 117.06242-771.32186V-750.9452C117.06242-748.74429 115.27824-746.9601 113.07732-746.9601ZM-117.06242-775.30697"/>
<text xml:space="preserve" transform="matrix(1 0 -0 1 0 1579.843)" font-size="9.9626" font-family="Computer Modern" fill="#ffffff"><tspan y="-791.893" x="78.475 85.25953 90.51978 96.05899 98.82859 103.80989 106.57949 112.1187 117.1 122.639209 125.408809 133.14975 140.48223 144.90563 149.88692 153.81218 158.79347 164.33267 167.10228 172.64148 177.62277 185.09473 190.63393 198.93277 203.91407 209.45326 212.77082 216.67615 221.09955 226.08084 231.62004 236.60134 242.14054 244.91014 252.6511 257.77189 263.3111 267.23637 271.11183 273.8814 276.651 279.42063 283.84403 288.82533 292.70079 295.47038 300.45167" fill="#ffffff">ExplainableReasoningHuman-readableJustification</tspan></text>
<path transform="matrix(1,0,0,-1,192.215,24.33606)" stroke-width=".3985" stroke-linecap="butt" stroke-miterlimit="10" stroke-linejoin="miter" fill="none" stroke="#ffffff" d="M81.05534-826.7298H-81.05534C-83.25629-826.7298-85.04045-828.514-85.04045-830.7149V-851.09146C-85.04045-853.2924-83.25629-855.0766-81.05534-855.0766H81.05534C83.25629-855.0766 85.04045-853.2924 85.04045-851.09146V-830.7149C85.04045-828.514 83.25629-826.7298 81.05534-826.7298ZM-85.04045-855.0766"/>
<text xml:space="preserve" transform="matrix(1 0 -0 1 0 1579.843)" font-size="9.9626" font-family="Computer Modern" fill="#ffffff"><tspan y="-711.156" x="143.135 150.18852 152.95813 157.93943 165.18224 176.26065 181.92938 186.91068 189.68029 193.58562 199.12482 203.54822 207.47348 214.72626 221.91925 227.45845 231.88185 236.0263" fill="#ffffff">Bias&amp;FairnessCheck</tspan></text>
<path transform="matrix(1,0,0,-1,192.215,24.33606)" stroke-width=".3985" stroke-linecap="butt" stroke-miterlimit="10" stroke-linejoin="miter" fill="none" stroke="#ffffff" d="M81.05534-906.49948H-81.05534C-83.25629-906.49948-85.04045-908.2836-85.04045-910.48458V-930.86117C-85.04045-933.0621-83.25629-934.84628-81.05534-934.84628H81.05534C83.25629-934.84628 85.04045-933.0621 85.04045-930.86117V-910.48458C85.04045-908.2836 83.25629-906.49948 81.05534-906.49948ZM-85.04045-934.84628"/>
<text xml:space="preserve" transform="matrix(1 0 -0 1 0 1579.843)" font-size="9.9626" font-family="Computer Modern" fill="#ffffff"><tspan y="-632.356" x="138.804 146.27596 151.25725 155.18251 164.03926 171.65068 176.07408 180.49748 183.26709 187.19235 189.96196 194.94326 203.80997 209.34917 214.88837 223.18721 231.48606 236.46735 240.37268" fill="#ffffff">HashDecisionSummary</tspan></text>
<path transform="matrix(1,0,0,-1,192.215,24.33606)" stroke-width=".3985" stroke-linecap="butt" stroke-miterlimit="10" stroke-linejoin="miter" fill="none" stroke="#ffffff" d="M0-615.96688V-661.415"/>
<path transform="matrix(0,1,1,0,192.215,682.82327)" d="M7.93657 0 .64343 2.74144 3.02744 0 .64343-2.74144Z" fill="#ffffff"/>
<path transform="matrix(0,1,1,0,192.215,682.82327)" stroke-width=".3985" stroke-linecap="butt" stroke-miterlimit="10" stroke-linejoin="miter" fill="none" stroke="#ffffff" d="M7.93657 0 .64343 2.74144 3.02744 0 .64343-2.74144Z"/>
<path transform="matrix(1,0,0,-1,192.215,24.33606)" stroke-width=".3985" stroke-linecap="butt" stroke-miterlimit="10" stroke-linejoin="miter" fill="none" stroke="#ffffff" d="M0-695.7365V-741.18466"/>
<path transform="matrix(0,1,1,0,192.215,762.5929)" d="M7.93657 0 .64343 2.74144 3.02744 0 .64343-2.74144Z" fill="#ffffff"/>
<path transform="matrix(0,1,1,0,192.215,762.5929)" stroke-width=".3985" stroke-linecap="butt" stroke-miterlimit="10" stroke-linejoin="miter" fill="none" stroke="#ffffff" d="M7.93657 0 .64343 2.74144 3.02744 0 .64343-2.74144Z"/>
<path transform="matrix(1,0,0,-1,192.215,24.33606)" stroke-width=".3985" stroke-linecap="butt" stroke-miterlimit="10" stroke-linejoin="miter" fill="none" stroke="#ffffff" d="M0-775.50619V-820.95437"/>
<path transform="matrix(0,1,1,0,192.215,842.36257)" d="M7.93657 0 .64343 2.74144 3.02744 0 .64343-2.74144Z" fill="#ffffff"/>
<path transform="matrix(0,1,1,0,192.215,842.36257)" stroke-width=".3985" stroke-linecap="butt" stroke-miterlimit="10" stroke-linejoin="miter" fill="none" stroke="#ffffff" d="M7.93657 0 .64343 2.74144 3.02744 0 .64343-2.74144Z"/>
<path transform="matrix(1,0,0,-1,192.215,24.33606)" stroke-width=".3985" stroke-linecap="butt" stroke-miterlimit="10" stroke-linejoin="miter" fill="none" stroke="#ffffff" d="M0-855.2758V-900.724"/>
<path transform="matrix(0,1,1,0,192.215,922.1322)" d="M7.93657 0 .64343 2.74144 3.02744 0 .64343-2.74144Z" fill="#ffffff"/>
<path transform="matrix(0,1,1,0,192.215,922.1322)" stroke-width=".3985" stroke-linecap="butt" stroke-miterlimit="10" stroke-linejoin="miter" fill="none" stroke="#ffffff" d="M7.93657 0 .64343 2.74144 3.02744 0 .64343-2.74144Z"/>
<path transform="matrix(1,0,0,-1,192.215,24.33606)" stroke-width=".3985" stroke-linecap="butt" stroke-miterlimit="10" stroke-linejoin="miter" fill="none" stroke="#ffffff" d="M63.3876-1026.5083 0-994.8558-63.3876-1026.5083 0-1058.1609Z"/>
<text xml:space="preserve" transform="matrix(1 0 -0 1 -.000015258789 1579.843)" font-size="9.9626" font-family="Computer Modern" fill="#ffffff"><tspan y="-525.553" x="145.626 153.23743 158.49767 162.92107 168.46027 176.75911 181.18251 186.44277 190.31822 197.56104 201.15753 206.42774 211.40904 216.39034 219.15995 224.14125 228.56465 234.10385" fill="#ffffff">DocumentsInvolved?</tspan></text>
<path transform="matrix(1,0,0,-1,192.215,24.33606)" stroke-width=".3985" stroke-linecap="butt" stroke-miterlimit="10" stroke-linejoin="miter" fill="none" stroke="#ffffff" d="M343.35176-1012.3349H181.24103C179.04009-1012.3349 177.25592-1014.1191 177.25592-1016.32V-1036.6965C177.25592-1038.8975 179.04009-1040.6817 181.24103-1040.6817H343.35176C345.5527-1040.6817 347.33686-1038.8975 347.33686-1036.6965V-1016.32C347.33686-1014.1191 345.5527-1012.3349 343.35176-1012.3349ZM177.25592-1040.6817"/>
<text xml:space="preserve" transform="matrix(1 0 -0 1 0 1579.843)" font-size="9.9626" font-family="Computer Modern" fill="#ffffff"><tspan y="-526.522" x="399.921 407.39295 412.93217 415.70176 420.68305 425.66435 434.5211 438.39656 446.70536 450.30186 457.0864 463.59199 472.44874 476.3242 483.10874 485.87834 491.41755 496.39884 500.2743 505.25559" fill="#ffffff">UploadtoIPFS(Pinata)</tspan></text>
<path transform="matrix(1,0,0,-1,192.215,24.33606)" stroke-width=".3985" stroke-linecap="butt" stroke-miterlimit="10" stroke-linejoin="miter" fill="none" stroke="#ffffff" d="M343.35176-1092.1045H181.24103C179.04009-1092.1045 177.25592-1093.8887 177.25592-1096.0896V-1116.4663C177.25592-1118.6672 179.04009-1120.4513 181.24103-1120.4513H343.35176C345.5527-1120.4513 347.33686-1118.6672 347.33686-1116.4663V-1096.0896C347.33686-1093.8887 345.5527-1092.1045 343.35176-1092.1045ZM177.25592-1120.4513"/>
<text xml:space="preserve" transform="matrix(1 0 -0 1 -.000030517579 1579.843)" font-size="9.9626" font-family="Computer Modern" fill="#ffffff"><tspan y="-445.784" x="374.35 379.88923 383.76469 388.74598 392.6513 400.39225 408.00367 413.26393 417.68733 423.22654 431.5254 435.9488 441.20906 448.41203 455.88398 460.86528 464.79054 473.64729 478.62858 487.48533 494.53886 497.30845 502.5687 506.71315 511.7044 515.8489 521.38809 526.3694 529.139" fill="#ffffff">StoreDocumentHashonBlockchain</tspan></text>
<path transform="matrix(1,0,0,-1,192.215,24.33606)" stroke-width=".3985" stroke-linecap="butt" stroke-miterlimit="10" stroke-linejoin="miter" fill="none" stroke="#ffffff" d="M343.35176-1171.8743H181.24103C179.04009-1171.8743 177.25592-1173.6585 177.25592-1175.8594V-1196.2359C177.25592-1198.4369 179.04009-1200.2211 181.24103-1200.2211H343.35176C345.5527-1200.2211 347.33686-1198.4369 347.33686-1196.2359V-1175.8594C347.33686-1173.6585 345.5527-1171.8743 343.35176-1171.8743ZM177.25592-1200.2211"/>
<text xml:space="preserve" transform="matrix(1 0 -0 1 0 1579.843)" font-size="9.9626" font-family="Computer Modern" fill="#ffffff"><tspan y="-366.016" x="380.439 387.91096 393.45018 401.74903 404.51863 413.37538 420.02043 424.44383 428.34916 431.11875 433.88835 436.65797 441.08137 446.06266 449.9381 452.7077 457.689 466.54576 471.806 474.5756 482.87443 492.01014 496.43354 500.309 505.29029 514.42599 519.4073 523.3425" fill="#ffffff">AdminVerificationviaMetaMask</tspan></text>
<path transform="matrix(1,0,0,-1,192.215,24.33606)" stroke-width=".3985" stroke-linecap="butt" stroke-miterlimit="10" stroke-linejoin="miter" fill="none" stroke="#ffffff" d="M81.05534-1118.1704H-81.05534C-83.25629-1118.1704-85.04045-1119.9545-85.04045-1122.1555V-1142.532C-85.04045-1144.733-83.25629-1146.5171-81.05534-1146.5171H81.05534C83.25629-1146.5171 85.04045-1144.733 85.04045-1142.532V-1122.1555C85.04045-1119.9545 83.25629-1118.1704 81.05534-1118.1704ZM-85.04045-1146.5171"/>
<text xml:space="preserve" transform="matrix(1 0 -0 1 0 1579.843)" font-size="9.9626" font-family="Computer Modern" fill="#ffffff"><tspan y="-419.774" x="172.567 179.76 184.74129 190.00154 193.877 196.6466 201.90686 207.44606" fill="#ffffff">Continue</tspan></text>
<path transform="matrix(1,0,0,-1,192.215,24.33606)" stroke-width=".3985" stroke-linecap="butt" stroke-miterlimit="10" stroke-linejoin="miter" fill="none" stroke="#ffffff" d="M0-935.0455V-988.9963"/>
<path transform="matrix(0,1,1,0,192.215,1010.40457)" d="M7.93657 0 .64343 2.74144 3.02744 0 .64343-2.74144Z" fill="#ffffff"/>
<path transform="matrix(0,1,1,0,192.215,1010.40457)" stroke-width=".3985" stroke-linecap="butt" stroke-miterlimit="10" stroke-linejoin="miter" fill="none" stroke="#ffffff" d="M7.93657 0 .64343 2.74144 3.02744 0 .64343-2.74144Z"/>
<path transform="matrix(1,0,0,-1,192.215,24.33606)" stroke-width=".3985" stroke-linecap="butt" stroke-miterlimit="10" stroke-linejoin="miter" fill="none" stroke="#ffffff" d="M63.67427-1026.5083H171.48047"/>
<path transform="matrix(1,0,0,-1,360.76765,1050.8444)" d="M7.93657 0 .64343 2.74144 3.02744 0 .64343-2.74144Z" fill="#ffffff"/>
<path transform="matrix(1,0,0,-1,360.76765,1050.8444)" stroke-width=".3985" stroke-linecap="butt" stroke-miterlimit="10" stroke-linejoin="miter" fill="none" stroke="#ffffff" d="M7.93657 0 .64343 2.74144 3.02744 0 .64343-2.74144Z"/>
<text xml:space="preserve" transform="matrix(1 0 -0 1 0 1579.843)" font-size="9.9626" font-family="Computer Modern" fill="#ffffff"><tspan y="-532.532" x="305.08 311.72505 316.14845" fill="#ffffff">Yes</tspan></text>
<path transform="matrix(1,0,0,-1,192.215,24.33606)" stroke-width=".3985" stroke-linecap="butt" stroke-miterlimit="10" stroke-linejoin="miter" fill="none" stroke="#ffffff" d="M262.2964-1040.881V-1086.3291"/>
<path transform="matrix(0,1,1,0,454.51139,1107.7373)" d="M7.93657 0 .64343 2.74144 3.02744 0 .64343-2.74144Z" fill="#ffffff"/>
<path transform="matrix(0,1,1,0,454.51139,1107.7373)" stroke-width=".3985" stroke-linecap="butt" stroke-miterlimit="10" stroke-linejoin="miter" fill="none" stroke="#ffffff" d="M7.93657 0 .64343 2.74144 3.02744 0 .64343-2.74144Z"/>
<path transform="matrix(1,0,0,-1,192.215,24.33606)" stroke-width=".3985" stroke-linecap="butt" stroke-miterlimit="10" stroke-linejoin="miter" fill="none" stroke="#ffffff" d="M262.2964-1120.6506V-1166.0988"/>
<path transform="matrix(0,1,1,0,454.51139,1187.507)" d="M7.93657 0 .64343 2.74144 3.02744 0 .64343-2.74144Z" fill="#ffffff"/>
<path transform="matrix(0,1,1,0,454.51139,1187.507)" stroke-width=".3985" stroke-linecap="butt" stroke-miterlimit="10" stroke-linejoin="miter" fill="none" stroke="#ffffff" d="M7.93657 0 .64343 2.74144 3.02744 0 .64343-2.74144Z"/>
<path transform="matrix(1,0,0,-1,192.215,24.33606)" stroke-width=".3985" stroke-linecap="butt" stroke-miterlimit="10" stroke-linejoin="miter" fill="none" stroke="#ffffff" d="M262.2964-1171.6749V-1132.3438H90.81592"/>
<path transform="matrix(-1,-0,0,1,285.95875,1156.6798)" d="M7.93657 0 .64343 2.74144 3.02744 0 .64343-2.74144Z" fill="#ffffff"/>
<path transform="matrix(-1,-0,0,1,285.95875,1156.6798)" stroke-width=".3985" stroke-linecap="butt" stroke-miterlimit="10" stroke-linejoin="miter" fill="none" stroke="#ffffff" d="M7.93657 0 .64343 2.74144 3.02744 0 .64343-2.74144Z"/>
<path transform="matrix(1,0,0,-1,192.215,24.33606)" stroke-width=".3985" stroke-linecap="butt" stroke-miterlimit="10" stroke-linejoin="miter" fill="none" stroke="#ffffff" d="M0-1058.4441V-1112.3949"/>
<path transform="matrix(0,1,1,0,192.215,1133.8031)" d="M7.93657 0 .64343 2.74144 3.02744 0 .64343-2.74144Z" fill="#ffffff"/>
<path transform="matrix(0,1,1,0,192.215,1133.8031)" stroke-width=".3985" stroke-linecap="butt" stroke-miterlimit="10" stroke-linejoin="miter" fill="none" stroke="#ffffff" d="M7.93657 0 .64343 2.74144 3.02744 0 .64343-2.74144Z"/>
<text xml:space="preserve" transform="matrix(1 0 -0 1 0 1579.8432)" font-size="9.9626" font-family="Computer Modern" fill="#ffffff"><tspan y="-463.91" x="195.735 203.20696" fill="#ffffff">No</tspan></text>
<path transform="matrix(1,0,0,-1,192.215,24.33606)" stroke-width=".3985" stroke-linecap="butt" stroke-miterlimit="10" stroke-linejoin="miter" fill="none" stroke="#ffffff" d="M132.00659-1197.9401H-132.00659C-134.20752-1197.9401-135.9917-1199.7241-135.9917-1201.9252V-1222.3018C-135.9917-1224.5027-134.20752-1226.2868-132.00659-1226.2868H132.00659C134.20752-1226.2868 135.9917-1224.5027 135.9917-1222.3018V-1201.9252C135.9917-1199.7241 134.20752-1197.9401 132.00659-1197.9401ZM-135.9917-1226.2868"/>
<text xml:space="preserve" transform="matrix(1 0 -0 1 -.000011444092 1579.843)" font-size="9.9626" font-family="Computer Modern" fill="#ffffff"><tspan y="-340.919" x="59.546 67.01795 71.99925 75.924518 84.781269 88.70653 92.58198 97.56328 101.46862 105.89201 114.75873 119.74003 128.59679 135.65032 138.41992 143.68016 147.82462 152.80593 156.96033 162.48957 167.47086 170.24047 175.77967 182.5642 186.43965 191.97885 196.40225 200.30759 204.73099 210.27019 221.89655 227.43575 231.85915 237.66735 242.64864 245.41825 248.18785 256.49665 262.03587 270.33473 275.316 279.22135 286.41435 293.60734 298.58863 303.84889 307.72434 311.62968 316.61097 321.03437" fill="#ffffff">HashstoredonBlockchainEthereumSepoliaSmartContract</tspan></text>
<path transform="matrix(1,0,0,-1,192.215,24.33606)" stroke-width=".3985" stroke-linecap="butt" stroke-miterlimit="10" stroke-linejoin="miter" fill="none" stroke="#ffffff" d="M99.62752-1277.7097H-99.62752C-101.82846-1277.7097-103.61263-1279.4939-103.61263-1281.6948V-1302.0714C-103.61263-1304.2723-101.82846-1306.0565-99.62752-1306.0565H99.62752C101.82846-1306.0565 103.61263-1304.2723 103.61263-1302.0714V-1281.6948C103.61263-1279.4939 101.82846-1277.7097 99.62752-1277.7097ZM-103.61263-1306.0565"/>
<text xml:space="preserve" transform="matrix(1 0 -0 1 -.0000076293949 1579.8432)" font-size="9.9626" font-family="Computer Modern" fill="#ffffff"><tspan y="-261.15" x="91.924 98.97752 101.74712 107.00738 111.15182 116.13312 120.28752 125.82673 130.80803 133.57764 142.43439 149.21892 154.20023 158.62363 163.88388 171.08686 177.31348 180.08309 184.00835 187.8838 192.3072 197.8464 202.2698 206.17514 213.6471 219.45529 224.99449 229.97579 233.85124 238.27465 245.52742 253.13884 258.12016 262.0454 267.30567 273.12385 278.10514 283.08644 286.99177" fill="#ffffff">BlockchainEventListenerUpdatesDashboard</tspan></text>
<path transform="matrix(1,0,0,-1,192.215,24.33606)" stroke-width=".3985" stroke-linecap="butt" stroke-miterlimit="10" stroke-linejoin="miter" fill="none" stroke="#ffffff" d="M114.14275-1357.4794H-114.14275C-116.34369-1357.4794-118.12785-1359.2636-118.12785-1361.4645V-1381.8411C-118.12785-1384.042-116.34369-1385.8262-114.14275-1385.8262H114.14275C116.34369-1385.8262 118.12785-1384.042 118.12785-1381.8411V-1361.4645C118.12785-1359.2636 116.34369-1357.4794 114.14275-1357.4794ZM-118.12785-1385.8262"/>
<text xml:space="preserve" transform="matrix(1 0 -0 1 0 1579.843)" font-size="9.9626" font-family="Computer Modern" fill="#ffffff"><tspan y="-181.382" x="77.409 83.91457 86.68417 92.22338 97.20468 103.291828 110.6243 115.04769 118.97295 124.51216 127.28176 134.48473 142.09615 146.51955 149.28916 152.05876 157.04007 161.46347 165.3688 169.7922 175.3314 182.5244 185.294 189.16947 198.02622 204.39232 208.29766 213.27895 218.81815 222.74341 228.28261 233.2639 237.16924 241.59264 246.85289 254.0459 260.83045 266.0907 271.6299 274.3995 279.3808 284.92 289.9013 293.77677 296.54637 301.52766" fill="#ffffff">FinalResultDeliveredwithTransparentExplanation</tspan></text>
<path transform="matrix(1,0,0,-1,192.215,24.33606)" stroke-width=".3985" stroke-linecap="butt" stroke-miterlimit="10" stroke-linejoin="miter" fill="none" stroke="#ffffff" d="M83.36877-1437.249H-83.36877C-85.56972-1437.249-87.35388-1439.0332-87.35388-1441.2341V-1461.6107C-87.35388-1463.8117-85.56972-1465.5958-83.36877-1465.5958H83.36877C85.56972-1465.5958 87.35388-1463.8117 87.35388-1461.6107V-1441.2341C87.35388-1439.0332 85.56972-1437.249 83.36877-1437.249ZM-87.35388-1465.5958"/>
<text xml:space="preserve" transform="matrix(1 0 -0 1 0 1579.8432)" font-size="9.9626" font-family="Computer Modern" fill="#ffffff"><tspan y="-101.613" x="108.183 115.65495 119.580219 124.00361 131.2265 138.4195 143.40079 148.93999 152.86525 157.28865 162.55886 169.75186 180.82032 188.43173 193.41303 197.28849 205.59729 212.79029 217.77158 223.03183 226.90729 230.81262 235.79392 241.88108 249.63198 255.17118 259.04664 261.81623 266.79753 272.33674" fill="#ffffff">UserConsent&amp;DataControlOptions</tspan></text>
<path transform="matrix(1,0,0,-1,192.215,24.33606)" stroke-width=".3985" stroke-linecap="butt" stroke-miterlimit="10" stroke-linejoin="miter" fill="none" stroke="#ffffff" d="M81.15485-1517.0187H-81.15485C-83.35579-1517.0187-85.13995-1518.8029-85.13995-1521.0038V-1541.3804C-85.13995-1543.5813-83.35579-1545.3655-81.15485-1545.3655H81.15485C83.35579-1545.3655 85.13995-1543.5813 85.13995-1541.3804V-1521.0038C85.13995-1518.8029 83.35579-1517.0187 81.15485-1517.0187ZM-85.13995-1545.3655"/>
<text xml:space="preserve" transform="matrix(1 0 -0 1 -.0000076293949 1579.843)" font-size="9.9626" font-family="Computer Modern" fill="#ffffff"><tspan y="-21.844" x="110.397 117.18153 122.72074 128.25995 135.45296 141.81906 146.80036 155.0992 160.91735 165.34075 169.24608 172.56363 178.10283 182.00817 187.2684 192.2497 198.6158 205.94828 210.37168 214.79508 219.77637 223.6817 232.53845 239.73145 244.71274 253.01158 258.55079 261.32038 265.74378 269.61924" fill="#ffffff">End:Tamper-proofRecordComplete</tspan></text>
<path transform="matrix(1,0,0,-1,192.215,24.33606)" stroke-width=".3985" stroke-linecap="butt" stroke-miterlimit="10" stroke-linejoin="miter" fill="none" stroke="#ffffff" d="M0-1146.7164V-1192.1646"/>
<path transform="matrix(0,1,1,0,192.215,1213.5728)" d="M7.93657 0 .64343 2.74144 3.02744 0 .64343-2.74144Z" fill="#ffffff"/>
<path transform="matrix(0,1,1,0,192.215,1213.5728)" stroke-width=".3985" stroke-linecap="butt" stroke-miterlimit="10" stroke-linejoin="miter" fill="none" stroke="#ffffff" d="M7.93657 0 .64343 2.74144 3.02744 0 .64343-2.74144Z"/>
<path transform="matrix(1,0,0,-1,192.215,24.33606)" stroke-width=".3985" stroke-linecap="butt" stroke-miterlimit="10" stroke-linejoin="miter" fill="none" stroke="#ffffff" d="M0-1226.4861V-1271.9342"/>
<path transform="matrix(0,1,1,0,192.215,1293.3424)" d="M7.93657 0 .64343 2.74144 3.02744 0 .64343-2.74144Z" fill="#ffffff"/>
<path transform="matrix(0,1,1,0,192.215,1293.3424)" stroke-width=".3985" stroke-linecap="butt" stroke-miterlimit="10" stroke-linejoin="miter" fill="none" stroke="#ffffff" d="M7.93657 0 .64343 2.74144 3.02744 0 .64343-2.74144Z"/>
<path transform="matrix(1,0,0,-1,192.215,24.33606)" stroke-width=".3985" stroke-linecap="butt" stroke-miterlimit="10" stroke-linejoin="miter" fill="none" stroke="#ffffff" d="M0-1306.2557V-1351.7039"/>
<path transform="matrix(0,1,1,0,192.215,1373.112)" d="M7.93657 0 .64343 2.74144 3.02744 0 .64343-2.74144Z" fill="#ffffff"/>
<path transform="matrix(0,1,1,0,192.215,1373.112)" stroke-width=".3985" stroke-linecap="butt" stroke-miterlimit="10" stroke-linejoin="miter" fill="none" stroke="#ffffff" d="M7.93657 0 .64343 2.74144 3.02744 0 .64343-2.74144Z"/>
<path transform="matrix(1,0,0,-1,192.215,24.33606)" stroke-width=".3985" stroke-linecap="butt" stroke-miterlimit="10" stroke-linejoin="miter" fill="none" stroke="#ffffff" d="M0-1386.0254V-1431.4735"/>
<path transform="matrix(0,1,1,0,192.215,1452.8818)" d="M7.93657 0 .64343 2.74144 3.02744 0 .64343-2.74144Z" fill="#ffffff"/>
<path transform="matrix(0,1,1,0,192.215,1452.8818)" stroke-width=".3985" stroke-linecap="butt" stroke-miterlimit="10" stroke-linejoin="miter" fill="none" stroke="#ffffff" d="M7.93657 0 .64343 2.74144 3.02744 0 .64343-2.74144Z"/>
<path transform="matrix(1,0,0,-1,192.215,24.33606)" stroke-width=".3985" stroke-linecap="butt" stroke-miterlimit="10" stroke-linejoin="miter" fill="none" stroke="#ffffff" d="M0-1465.795V-1511.2432"/>
<path transform="matrix(0,1,1,0,192.215,1532.6515)" d="M7.93657 0 .64343 2.74144 3.02744 0 .64343-2.74144Z" fill="#ffffff"/>
<path transform="matrix(0,1,1,0,192.215,1532.6515)" stroke-width=".3985" stroke-linecap="butt" stroke-miterlimit="10" stroke-linejoin="miter" fill="none" stroke="#ffffff" d="M7.93657 0 .64343 2.74144 3.02744 0 .64343-2.74144Z"/>
</svg>